<svg xmlns="http://www.w3.org/2000/svg" viewBox="0 0 141 42" id="logo-light-mode"><g fill="none" fill-rule="evenodd"><path d="M63.304 34.04c-1.088 0-1.824-.608-2.24-1.6l-7.84-18.432c-.128-.288-.224-.576-.224-.928 0-1.056.864-1.92 1.984-1.92 1.024 0 1.696.576 2.016 1.408l6.464 16.16 6.56-16.288c.256-.672.96-1.28 1.888-1.28 1.088 0 1.952.832 1.952 1.888 0 .288-.096.608-.192.832L65.8 32.44c-.416.992-1.152 1.6-2.272 1.6h-.224zm13.184-1.984c0-.288.096-.576.256-.896l8.32-18.56c.448-.992 1.248-1.6 2.368-1.6h.192c1.12 0 1.888.608 2.336 1.6l8.32 18.56c.16.288.224.576.224.832 0 1.056-.8 1.888-1.856 1.888-.928 0-1.568-.544-1.92-1.376l-1.824-4.192h-10.88l-1.888 4.32c-.32.8-.992 1.248-1.824 1.248-1.024 0-1.824-.8-1.824-1.824zm7.04-7.232H91.4l-3.936-9.056-3.936 9.056zm19.232 6.912V13.112c0-1.088.864-1.952 1.984-1.952a1.94 1.94 0 011.952 1.952v17.024h10.144c.992 0 1.792.8 1.792 1.792s-.8 1.792-1.792 1.792h-12.096a1.954 1.954 0 01-1.984-1.984zm19.808.192V13.304c0-1.12.864-1.984 1.984-1.984h8c2.816 0 5.024.832 6.464 2.24 1.184 1.216 1.856 2.88 1.856 4.832v.064c0 3.584-2.08 5.76-5.088 6.688l4.288 5.408c.384.48.64.896.64 1.504 0 1.088-.928 1.824-1.888 1.824-.896 0-1.472-.416-1.92-1.024l-5.44-6.944h-4.96v6.016a1.94 1.94 0 01-1.952 1.952c-1.12 0-1.984-.864-1.984-1.952zm3.936-9.504h5.76c2.816 0 4.608-1.472 4.608-3.744v-.064c0-2.4-1.728-3.712-4.64-3.712h-5.728v7.52z" fill="#FFFFFF"></path><path d="M18.525 33.771L.535 3.01A2 2 0 012.26 0h25.262L16.991 17.906a1.992 1.992 0 00.726 2.737 2.027 2.027 0 002.76-.72L32.195 0H46.74a2 2 0 011.726 3.01L26.226 41.034a2 2 0 01-3.453 0l-1.918-3.28 12.04-20.47a1.992 1.992 0 00-.725-2.737 2.027 2.027 0 00-2.76.72L18.525 33.77z" fill="#FFFFFF"></path></g></svg>